<svg xmlns="http://www.w3.org/2000/svg" viewBox="0 0 80 80"><path d="M9.52,51.86a3,3,0,1,0-3,3,3,3,0,0,0,3-3" style="fill:#FF9173"></path><path d="M21.36,51.86a3,3,0,1,0-3,3,3,3,0,0,0,3-3" style="fill:#0BDCCA"></path><path d="M53.45,40a3,3,0,1,0-3,3,3,3,0,0,0,3-3" style="fill:#FF9173"></path><path d="M50.49,31.14a3,3,0,1,1,0-5.92h23a3,3,0,0,1,0,5.92Z" style="fill:#0BDCCA"></path><path d="M18.4,31.14a3,3,0,1,1,0-5.92h8.41a3,3,0,1,1,0,5.92Z" style="fill:#293754"></path><path d="M54.64,13.38a3,3,0,1,1,0,5.92H50.49a3,3,0,1,1,0-5.92Z" style="fill:#293754"></path><path d="M69.45,16.34a3,3,0,1,0-3,3,3,3,0,0,0,3-3" style="fill:#FF9173"></path><path d="M30.24,48.9a3,3,0,1,0,0,5.92h19.5a3,3,0,0,0,0-5.92Z" style="fill:#293754"></path><path d="M4.52,43a3,3,0,1,1,0-5.92H38.65a3,3,0,1,1,0,5.92Z" style="fill:#3F9FFF"></path><path d="M41,26.44C39,23.57,39,21,41,18.08h0a3,3,0,1,0-4.78,0h0c2.09,2.87,2.09,5.49,0,8.36h0a3,3,0,1,0,4.78,0Z" style="fill:#3F9FFF"></path><path d="M37.17,60.56a3,3,0,1,0,0,5.92h29.4a3,3,0,1,0,0-5.92Z" style="fill:#3F9FFF"></path><path d="M26.81,19.3a3,3,0,1,0,0-5.92H13.54a3,3,0,0,0,0,5.92Z" style="fill:#0BDCCA"></path><path d="M73.43,54.83a2.94,2.94,0,0,1-1.74-.57h0c-2.87-2.09-5.49-2.09-8.36,0h0a3,3,0,1,1,0-4.78h0c2.87,2.09,5.49,2.09,8.36,0h0a3,3,0,1,1,1.74,5.35" style="fill:#0BDCCA"></path><path d="M25.33,66.48a3,3,0,0,1-1.74-.57h0c-2.87-2.09-5.49-2.09-8.36,0h0a3,3,0,1,1,0-4.78h0c2.87,2.09,5.49,2.09,8.36,0h0a3,3,0,1,1,1.74,5.35" style="fill:#293754"></path><path d="M9.52,28.18a3,3,0,1,1-3-3,3,3,0,0,1,3,3" style="fill:#293754"></path><path d="M62.33,43a3,3,0,1,1,0-5.92H75.48a3,3,0,0,1,0,5.92Z" style="fill:#3F9FFF"></path><path d="M23.24,4.55a3,3,0,1,0,3-3,3,3,0,0,0-3,3" style="fill:#293754"></path><path d="M38,7.51a3,3,0,1,1,0-5.92H53.8a3,3,0,1,1,0,5.92Z" style="fill:#3F9FFF"></path><path d="M56.76,75.46a3,3,0,1,0-3,3,3,3,0,0,0,3-3" style="fill:#293754"></path><path d="M42,72.49a3,3,0,1,1,0,5.92H26.2a3,3,0,1,1,0-5.92Z" style="fill:#3F9FFF"></path></svg>