<?xml version="1.0" encoding="UTF-8"?>
<svg width="48px" height="48px" viewBox="0 0 48 48" version="1.1" xmlns="http://www.w3.org/2000/svg" xmlns:xlink="http://www.w3.org/1999/xlink">
    <title>X</title>
    <g id="X" stroke="none" stroke-width="1" fill="none" fill-rule="evenodd">
        <path d="M34.8450329,3.55271368e-15 L48,13.2396831 L48,44.000946 C48,46.2097671 46.2094955,48 44.0006268,48 L9.99937324,48 C7.79050454,48 6,46.2097671 6,44.000946 L6,39.0001182 L2.00062676,39.0001182 C0.894547164,39.0001182 0,38.1038193 0,36.9998818 L0,20.000946 C0,18.8960624 0.89595738,18.0002365 2.00062676,18.0002365 L6,18.0002365 L6,3.99952702 C6,1.79070592 7.79050454,3.55271368e-15 9.99937324,3.55271368e-15 L34.8450329,3.55271368e-15 L34.8450329,3.55271368e-15 Z M33.5965215,3.00059123 L9.99937324,3.00059123 C9.44750862,3.00059123 9.00047007,3.44803122 9.00047007,3.99952702 L9.00047007,18.0002365 L39,18.0002365 C40.1051395,18.0002365 41.0006268,18.8960624 41.0006268,20.000946 L41.0006268,36.9994088 C41.0006268,38.1061842 40.1046694,38.9996453 39,38.9996453 L9.00047007,38.9996453 L9.00047007,44.000473 C9.00047007,44.5519688 9.44797869,44.9994088 9.99937324,44.9994088 L44.0010968,44.9994088 C44.5529615,44.9994088 45,44.5519688 45,44.000473 L45,14.4755824 L44.5280476,13.9992905 L38.5971482,13.9992905 C37.3773112,13.9997635 36.2077719,13.515431 35.3456597,12.6531867 C34.4830774,11.7914154 33.9989032,10.6212605 33.9993732,9.40191557 L33.9993732,3.40735485 L33.5965215,3.00059123 L33.5965215,3.00059123 Z M17.9158571,21.0112333 L15.1931996,21.0112333 L19.4591037,27.8869575 L15.097775,34.8757243 L17.8411156,34.8757243 L20.8505171,29.6667849 L23.8575682,34.8757243 L26.6385146,34.8757243 L22.2113757,27.8869575 L26.4772798,21.0112333 L23.7334691,21.0112333 L20.8124412,26.1336171 L17.9172673,21.0112333 L17.9158571,21.0112333 Z" id="形状" fill="#16AF57" fill-rule="nonzero"></path>
    </g>
</svg>