<?xml version="1.0" encoding="UTF-8"?>
<svg width="100px" height="28px" viewBox="0 0 100 28" version="1.1" xmlns="http://www.w3.org/2000/svg" xmlns:xlink="http://www.w3.org/1999/xlink">
    <title>画板</title>
    <defs>
        <polygon id="path-1" points="0 0 7.89713812 0 7.89713812 2.15760161 0 2.15760161"></polygon>
        <polygon id="path-3" points="0 0 2.15635962 0 2.15635962 2.15762623 0 2.15762623"></polygon>
    </defs>
    <g id="画板" stroke="none" stroke-width="1" fill="none" fill-rule="evenodd">
        <g id="编组-2">
            <g id="独立图标_深">
                <path d="M17.844737,10.7716113 C17.2490562,10.7716113 16.7660651,10.2885717 16.7660651,9.69252738 C16.7660651,9.09648307 17.2490562,8.61368964 17.844737,8.61368964 L26.2187151,8.61368964 C26.8141498,8.61368964 27.2966488,9.09648307 27.2966488,9.69252738 C27.2966488,10.2885717 26.8141498,10.7716113 26.2187151,10.7716113 L17.844737,10.7716113 Z" id="Fill-1" fill="#00D8C7"></path>
                <path d="M6.13319953,10.7716113 C5.53751872,10.7716113 5.05452762,10.2885717 5.05452762,9.69252738 C5.05452762,9.09648307 5.53751872,8.61368964 6.13319953,8.61368964 L9.19476763,8.61368964 C9.79020239,8.61368964 10.2734395,9.09648307 10.2734395,9.69252738 C10.2734395,10.2885717 9.79020239,10.7716113 9.19476763,10.7716113 L6.13319953,10.7716113 Z" id="Fill-3" fill="#FFFFFF"></path>
                <path d="M19.3332748,4.29824021 C19.9282174,4.29824021 20.4119467,4.78127984 20.4119467,5.37732415 C20.4119467,5.97287606 19.9282174,6.45591569 19.3332748,6.45591569 L17.8210673,6.45591569 C17.2256325,6.45591569 16.7428875,5.97287606 16.7428875,5.37732415 C16.7428875,4.78127984 17.2256325,4.29824021 17.8210673,4.29824021 L19.3332748,4.29824021 Z" id="Fill-5" fill="#FFFFFF"></path>
                <path d="M10.4460172,17.2451301 C9.85058243,17.2451301 9.36734529,17.7281697 9.36734529,18.3242141 C9.36734529,18.919766 9.85058243,19.4028056 10.4460172,19.4028056 L17.5489142,19.4028056 C18.1441029,19.4028056 18.6266019,18.919766 18.6266019,18.3242141 C18.6266019,17.7281697 18.1441029,17.2451301 17.5489142,17.2451301 L10.4460172,17.2451301 Z" id="Fill-7" fill="#FFFFFF"></path>
                <path d="M1.07867191,15.0871838 C0.482991093,15.0871838 1.07699928e-14,14.6041442 1.07699928e-14,14.0078537 C1.07699928e-14,13.412548 0.482991093,12.9295084 1.07867191,12.9295084 L13.5077575,12.9295084 C14.1039304,12.9295084 14.5861834,13.412548 14.5861834,14.0078537 C14.5861834,14.6041442 14.1039304,15.0871838 13.5077575,15.0871838 L1.07867191,15.0871838 Z" id="Fill-9" fill="#3B9DFF"></path>
                <line x1="14.3801187" y1="9.05844554" x2="14.3980801" y2="9.08380389" id="Fill-11" fill="#283654"></line>
                <path d="M12.9687168,21.4914227 C12.373036,21.4914227 11.8900449,21.9744623 11.8900449,22.5705066 C11.8900449,23.1660585 12.373036,23.6486057 12.9687168,23.6486057 L23.6762086,23.6486057 C24.2716434,23.6486057 24.7541424,23.1660585 24.7541424,22.5705066 C24.7541424,21.9744623 24.2716434,21.4914227 23.6762086,21.4914227 L12.9687168,21.4914227 Z" id="Fill-13" fill="#3B9DFF"></path>
                <path d="M9.19486604,6.45618651 C9.79030081,6.45618651 10.273538,5.97290068 10.273538,5.37685637 C10.273538,4.78105826 9.79030081,4.29826483 9.19486604,4.29826483 L4.36372488,4.29826483 C3.76878221,4.29826483 3.28603716,4.78105826 3.28603716,5.37685637 C3.28603716,5.97290068 3.76878221,6.45618651 4.36372488,6.45618651 L9.19486604,6.45618651 Z" id="Fill-15" fill="#00D8C7"></path>
                <path d="M22.1337373,15.0871838 C21.5383026,15.0871838 21.0553115,14.6041442 21.0553115,14.0078537 C21.0553115,13.412548 21.5383026,12.9295084 22.1337373,12.9295084 L26.9220662,12.9295084 C27.517255,12.9295084 28,13.412548 28,14.0078537 C28,14.6041442 27.517255,15.0871838 26.9220662,15.0871838 L22.1337373,15.0871838 Z" id="Fill-17" fill="#3B9DFF"></path>
                <g id="编组" transform="translate(12.230747, -0.000000)">
                    <mask id="mask-2" fill="white">
                        <use xlink:href="#path-1"></use>
                    </mask>
                    <g id="Clip-20"></g>
                    <path d="M1.07867191,2.15760161 C0.482991093,2.15760161 0,1.67505438 0,1.07851768 C0,0.482965766 0.482991093,-7.385927e-05 1.07867191,-7.385927e-05 L6.81846621,-7.385927e-05 C7.41439307,-7.385927e-05 7.89713812,0.482965766 7.89713812,1.07851768 C7.89713812,1.67505438 7.41439307,2.15760161 6.81846621,2.15760161 L1.07867191,2.15760161 Z" id="Fill-19" fill="#3B9DFF" mask="url(#mask-2)"></path>
                </g>
                <path d="M14.7136359,25.8420783 C15.3093168,25.8420783 15.7923079,26.325118 15.7923079,26.9214085 C15.7923079,27.5172066 15.3093168,28 14.7136359,28 L8.97384164,28 C8.37791478,28 7.89516974,27.5172066 7.89516974,26.9214085 C7.89516974,26.325118 8.37791478,25.8420783 8.97384164,25.8420783 L14.7136359,25.8420783 Z" id="Fill-21" fill="#3B9DFF"></path>
                <g id="编组" transform="translate(7.895342, -0.000000)">
                    <mask id="mask-4" fill="white">
                        <use xlink:href="#path-3"></use>
                    </mask>
                    <g id="Clip-24"></g>
                    <path d="M2.15635962,1.0787885 C2.15635962,1.67458661 1.67361458,2.15762623 1.07817981,2.15762623 C0.482745046,2.15762623 0,1.67458661 0,1.0787885 C0,0.482990386 0.482745046,-4.92395133e-05 1.07817981,-4.92395133e-05 C1.67361458,-4.92395133e-05 2.15635962,0.482990386 2.15635962,1.0787885" id="Fill-23" fill="#FFFFFF" mask="url(#mask-4)"></path>
                </g>
                <path d="M24.7241984,5.37727491 C24.7241984,5.97307302 24.2414534,6.45611265 23.6460186,6.45611265 C23.0505838,6.45611265 22.5678388,5.97307302 22.5678388,5.37727491 C22.5678388,4.7814768 23.0505838,4.29843717 23.6460186,4.29843717 C24.2414534,4.29843717 24.7241984,4.7814768 24.7241984,5.37727491" id="Fill-25" fill="#FF8B6E"></path>
                <path d="M2.89831563,9.69269971 C2.89831563,10.2884978 2.41557058,10.7715375 1.82013582,10.7715375 C1.22470105,10.7715375 0.741956007,10.2884978 0.741956007,9.69269971 C0.741956007,9.0969016 1.22470105,8.61386198 1.82013582,8.61386198 C2.41557058,8.61386198 2.89831563,9.0969016 2.89831563,9.69269971" id="Fill-27" fill="#FFFFFF"></path>
                <path d="M18.8990749,14.0080014 C18.8990749,14.6037995 18.4163298,15.0868392 17.8208951,15.0868392 C17.2254603,15.0868392 16.7427152,14.6037995 16.7427152,14.0080014 C16.7427152,13.4122033 17.2254603,12.9291637 17.8208951,12.9291637 C18.4163298,12.9291637 18.8990749,13.4122033 18.8990749,14.0080014" id="Fill-29" fill="#FF8B6E"></path>
                <path d="M7.21110869,18.3239186 C7.21110869,18.9197167 6.72836364,19.4027564 6.13292888,19.4027564 C5.53749411,19.4027564 5.05474907,18.9197167 5.05474907,18.3239186 C5.05474907,17.7281205 5.53749411,17.2450809 6.13292888,17.2450809 C6.72836364,17.2450809 7.21110869,17.7281205 7.21110869,18.3239186" id="Fill-31" fill="#00D8C7"></path>
                <path d="M20.1050517,26.921113 C20.1050517,27.5169111 19.6223067,27.9999508 19.0268719,27.9999508 C18.4311911,27.9999508 17.9486921,27.5169111 17.9486921,26.921113 C17.9486921,26.3253149 18.4311911,25.8422753 19.0268719,25.8422753 C19.6223067,25.8422753 20.1050517,26.3253149 20.1050517,26.921113" id="Fill-33" fill="#FFFFFF"></path>
                <path d="M2.89831563,18.3239186 C2.89831563,18.9197167 2.41557058,19.4027564 1.82013582,19.4027564 C1.22470105,19.4027564 0.741956007,18.9197167 0.741956007,18.3239186 C0.741956007,17.7281205 1.22470105,17.2450809 1.82013582,17.2450809 C2.41557058,17.2450809 2.89831563,17.7281205 2.89831563,18.3239186" id="Fill-35" fill="#FF8B6E"></path>
                <path d="M13.5076591,10.7711435 C14.1026018,10.7711435 14.5855929,10.2881039 14.5855929,9.69279819 C14.5855929,9.45521754 14.50858,9.2368403 14.3781749,9.05834706 C13.6173963,8.01126881 13.6188725,7.05848423 14.3796512,6.01115978 C14.5100563,5.83365134 14.5855929,5.6145355 14.5855929,5.37695485 C14.5855929,4.78091054 14.1026018,4.29836331 13.5076591,4.29836331 C12.9127164,4.29836331 12.4294793,4.78091054 12.4294793,5.37695485 C12.4294793,5.6145355 12.5052619,5.83365134 12.635667,6.01115978 C13.3961996,7.05848423 13.3976759,8.01126881 12.6371433,9.05834706 C12.5067382,9.2368403 12.4294793,9.45521754 12.4294793,9.69279819 C12.4294793,10.2881039 12.9127164,10.7711435 13.5076591,10.7711435" id="Fill-37" fill="#3B9DFF"></path>
                <path d="M20.7838473,18.3239186 C20.7838473,18.9192243 21.2665924,19.4025102 21.8615351,19.4025102 C22.0989708,19.4025102 22.3172149,19.3254503 22.4955993,19.1949656 C23.542285,18.4339689 24.4939964,18.4354461 25.5411743,19.1964428 C25.7185745,19.3269275 25.9373106,19.4025102 26.1747464,19.4025102 C26.7701812,19.4025102 27.2526802,18.9192243 27.2526802,18.3239186 C27.2526802,17.7286129 26.7701812,17.2453271 26.1747464,17.2453271 C25.9373106,17.2453271 25.7185745,17.3209097 25.5411743,17.4513944 C24.4939964,18.2123911 23.542285,18.2138683 22.4955993,17.4528716 C22.3172149,17.3223869 22.0989708,17.2453271 21.8615351,17.2453271 C21.2665924,17.2453271 20.7838473,17.7286129 20.7838473,18.3239186" id="Fill-39" fill="#00D8C7"></path>
                <path d="M3.2649755,22.5703589 C3.2649755,23.1656646 3.74772055,23.6489504 4.34266322,23.6489504 C4.58009898,23.6489504 4.79834305,23.5718906 4.97648138,23.4414059 C6.02316712,22.6804092 6.97512461,22.6818864 8.02205639,23.442883 C8.19945659,23.5733678 8.41819275,23.6489504 8.65562851,23.6489504 C9.25130932,23.6489504 9.73380832,23.1656646 9.73380832,22.5703589 C9.73380832,21.9750532 9.25130932,21.4917673 8.65562851,21.4917673 C8.41819275,21.4917673 8.19945659,21.56735 8.02205639,21.6978347 C6.97512461,22.4588314 6.02316712,22.4603086 4.97648138,21.6993119 C4.79834305,21.5688272 4.58009898,21.4917673 4.34266322,21.4917673 C3.74772055,21.4917673 3.2649755,21.9750532 3.2649755,22.5703589" id="Fill-41" fill="#FFFFFF"></path>
            </g>
            <g id="·-CRM" transform="translate(42.784000, 8.352000)" fill="#FFFFFF" fill-rule="nonzero">
                <path d="M1.216,4.672 C0.864,4.672 0.592,4.784 0.368,5.04 C0.112,5.264 0,5.536 0,5.888 C0,6.208 0.112,6.496 0.368,6.736 C0.592,6.976 0.864,7.104 1.216,7.104 C1.552,7.104 1.84,6.976 2.064,6.736 C2.304,6.496 2.432,6.208 2.432,5.888 C2.432,5.536 2.304,5.264 2.064,5.04 C1.84,4.784 1.552,4.672 1.216,4.672 Z" id="路径"></path>
                <path d="M21.952,0 C20.128,0 18.752,0.592 17.792,1.808 C16.928,2.88 16.512,4.256 16.512,5.952 C16.512,7.68 16.912,9.056 17.744,10.08 C18.688,11.264 20.096,11.872 21.968,11.872 C23.2,11.872 24.256,11.52 25.136,10.816 C26.08,10.064 26.672,9.024 26.928,7.696 L25.232,7.696 C25.008,8.592 24.608,9.264 24.032,9.712 C23.488,10.128 22.784,10.336 21.952,10.336 C20.672,10.336 19.728,9.936 19.12,9.136 C18.544,8.384 18.256,7.328 18.256,5.952 C18.256,4.624 18.544,3.568 19.136,2.8 C19.76,1.952 20.688,1.536 21.92,1.536 C22.752,1.536 23.424,1.712 23.968,2.08 C24.512,2.448 24.88,3.024 25.072,3.792 L26.768,3.792 C26.592,2.64 26.08,1.712 25.248,1.04 C24.384,0.336 23.28,0 21.952,0 Z" id="路径"></path>
                <path d="M28.688,0.224 L28.688,11.648 L30.432,11.648 L30.432,6.928 L33.52,6.928 C34.176,6.928 34.672,7.056 35.024,7.344 C35.36,7.632 35.568,8.08 35.632,8.72 L35.776,10.144 C35.84,10.784 36,11.296 36.272,11.648 L38.16,11.648 C37.776,11.232 37.552,10.672 37.488,9.968 L37.296,8.144 C37.168,7.024 36.608,6.352 35.584,6.128 L35.584,6.096 C36.208,5.936 36.704,5.6 37.072,5.088 C37.392,4.624 37.552,4.096 37.552,3.488 C37.552,2.4 37.2,1.584 36.496,1.008 C35.824,0.48 34.896,0.224 33.744,0.224 L28.688,0.224 Z M30.432,1.712 L33.504,1.712 C34.304,1.712 34.88,1.856 35.264,2.16 C35.616,2.448 35.808,2.912 35.808,3.552 C35.808,4.16 35.616,4.624 35.248,4.944 C34.864,5.264 34.288,5.44 33.52,5.44 L30.432,5.44 L30.432,1.712 Z" id="形状"></path>
                <polygon id="路径" points="39.76 0.224 39.76 11.648 41.504 11.648 41.504 3.488 41.568 3.488 45.072 11.648 46.576 11.648 50.08 3.488 50.144 3.488 50.144 11.648 51.888 11.648 51.888 0.224 49.824 0.224 45.856 9.376 45.808 9.376 41.824 0.224"></polygon>
            </g>
        </g>
    </g>
</svg>