<?xml version="1.0" encoding="UTF-8"?>
<svg width="24px" height="24px" viewBox="0 0 24 24" version="1.1" xmlns="http://www.w3.org/2000/svg" xmlns:xlink="http://www.w3.org/1999/xlink">
    <title>登出</title>
    <g id="登出" stroke="none" stroke-width="1" fill="none" fill-rule="evenodd">
        <g id="编组-3">
            <circle id="椭圆形" fill="#409EFF" cx="12" cy="12" r="12"></circle>
            <g id="退出-(2)" transform="translate(6.000000, 6.000000)" fill="#FFFFFF" fill-rule="nonzero">
                <path d="M11.8907057,5.68833759 L9.89058699,3.18818922 C9.75788063,3.02277714 9.53526739,2.95906573 9.33514189,3.02922209 C9.13501638,3.09937845 9.00091112,3.28814173 9.00053416,3.50020773 L9.00053416,5.00029676 L5.00029676,5.00029676 C4.44797923,5.00029676 4.00023741,5.44803858 4.00023741,6.00035611 C4.00023741,6.55267363 4.44797923,7.00041545 5.00029676,7.00041545 L9.00053416,7.00041545 L9.00053416,8.50050448 C9.00091112,8.71257048 9.13501638,8.90133377 9.33514189,8.97149012 C9.53526739,9.04164648 9.75788063,8.97793508 9.89058699,8.812523 L11.8907057,6.31237462 C12.0364314,6.1298848 12.0364314,5.87082742 11.8907057,5.68833759 L11.8907057,5.68833759 Z M7.00041545,10.0005935 L2.99217757,10.0005935 C2.72800561,9.99953471 2.47507429,9.89357627 2.28902671,9.7060283 C2.10297912,9.51848032 1.99905565,9.26470611 2.00011871,9.00053416 L2.00011871,3.00017805 L2.00011871,2.99217757 C2.00117751,2.72800561 2.10713595,2.47507429 2.29468392,2.28902671 C2.48223189,2.10297912 2.73600611,1.99905565 3.00017805,2.00011871 L7.00041545,2.00011871 C7.55273298,2.00011871 8.00047481,1.55237688 8.00047481,1.00005935 C8.00047481,0.447741823 7.55273298,0 7.00041545,0 L2.00011871,0 C0.895483647,0 0,0.895483647 0,2.00011871 L0,10.0005935 C0,11.1052286 0.895483647,12.0007122 2.00011871,12.0007122 L7.00041545,12.0007122 C7.55273298,12.0007122 8.00047481,11.5529704 8.00047481,11.0006529 C8.00047481,10.4483353 7.55273298,10.0005935 7.00041545,10.0005935 Z" id="形状"></path>
            </g>
        </g>
    </g>
</svg>