<?xml version="1.0" encoding="UTF-8"?>
<svg width="180px" height="60px" viewBox="0 0 180 60" version="1.1" xmlns="http://www.w3.org/2000/svg" xmlns:xlink="http://www.w3.org/1999/xlink">
    <title>logo</title>
    <defs>
        <polygon id="path-1" points="0 0 16.90957 0 16.90957 4.62343203 0 4.62343203"></polygon>
        <polygon id="path-3" points="0 0 4.61725673 0 4.61725673 4.62348479 0 4.62348479"></polygon>
    </defs>
    <g id="logo" stroke="none" stroke-width="1" fill="none" fill-rule="evenodd">
        <g id="编组-2">
            <text id="CRM" font-family="AlibabaPuHuiTi-Regular, Alibaba PuHuiTi" font-size="32" font-weight="normal" fill="#333333">
                <tspan x="80.0250951" y="42">CRM</tspan>
            </text>
            <g id="独立图标_浅">
                <path d="M38.2096434,23.0820242 C36.9341552,23.0820242 35.8999613,22.0469393 35.8999613,20.7697015 C35.8999613,19.4924637 36.9341552,18.4579064 38.2096434,18.4579064 L56.1402362,18.4579064 C57.4151975,18.4579064 58.4483377,19.4924637 58.4483377,20.7697015 C58.4483377,22.0469393 57.4151975,23.0820242 56.1402362,23.0820242 L38.2096434,23.0820242 Z" id="Fill-1" fill="#00D8C7"></path>
                <path d="M13.1325761,23.0820242 C11.8570879,23.0820242 10.822894,22.0469393 10.822894,20.7697015 C10.822894,19.4924637 11.8570879,18.4579064 13.1325761,18.4579064 L19.6880902,18.4579064 C20.9630515,18.4579064 21.9977722,19.4924637 21.9977722,20.7697015 C21.9977722,22.0469393 20.9630515,23.0820242 19.6880902,23.0820242 L13.1325761,23.0820242 Z" id="Fill-3" fill="#293754"></path>
                <path d="M41.3969414,9.21051475 C42.670849,9.21051475 43.7066234,10.2455997 43.7066234,11.5228375 C43.7066234,12.7990201 42.670849,13.834105 41.3969414,13.834105 L38.158961,13.834105 C36.8839997,13.834105 35.8503327,12.7990201 35.8503327,11.5228375 C35.8503327,10.2455997 36.8839997,9.21051475 38.158961,9.21051475 L41.3969414,9.21051475 Z" id="Fill-5" fill="#293754"></path>
                <path d="M22.3673003,36.9538503 C21.0923389,36.9538503 20.0576182,37.9889352 20.0576182,39.266173 C20.0576182,40.5423557 21.0923389,41.5774406 22.3673003,41.5774406 L37.5762194,41.5774406 C38.8506539,41.5774406 39.8837941,40.5423557 39.8837941,39.266173 C39.8837941,37.9889352 38.8506539,36.9538503 37.5762194,36.9538503 L22.3673003,36.9538503 Z" id="Fill-7" fill="#293754"></path>
                <path d="M2.30968205,32.3296796 C1.03419386,32.3296796 0,31.2945947 0,30.0168294 C0,28.7411743 1.03419386,27.7060893 2.30968205,27.7060893 L28.9231831,27.7060893 C30.199725,27.7060893 31.2323383,28.7411743 31.2323383,30.0168294 C31.2323383,31.2945947 30.199725,32.3296796 28.9231831,32.3296796 L2.30968205,32.3296796 Z" id="Fill-9" fill="#3B9DFF"></path>
                <line x1="30.7911069" y1="19.4109547" x2="30.8295665" y2="19.4652941" id="Fill-11" fill="#283654"></line>
                <path d="M27.7689743,46.0530485 C26.4934861,46.0530485 25.4592923,47.0881335 25.4592923,48.3653713 C25.4592923,49.6415539 26.4934861,50.6755837 27.7689743,50.6755837 L50.6961512,50.6755837 C51.9711126,50.6755837 53.0042527,49.6415539 53.0042527,48.3653713 C53.0042527,47.0881335 51.9711126,46.0530485 50.6961512,46.0530485 L27.7689743,46.0530485 Z" id="Fill-13" fill="#3B9DFF"></path>
                <path d="M19.6883009,13.8346854 C20.9632622,13.8346854 21.9979829,12.7990729 21.9979829,11.5218351 C21.9979829,10.2451248 20.9632622,9.2105675 19.6883009,9.2105675 L9.34372812,9.2105675 C8.06982045,9.2105675 7.03615344,10.2451248 7.03615344,11.5218351 C7.03615344,12.7990729 8.06982045,13.8346854 9.34372812,13.8346854 L19.6883009,13.8346854 Z" id="Fill-15" fill="#00D8C7"></path>
                <path d="M47.3933691,32.3296796 C46.1184078,32.3296796 45.0842139,31.2945947 45.0842139,30.0168294 C45.0842139,28.7411743 46.1184078,27.7060893 47.3933691,27.7060893 L57.6462711,27.7060893 C58.9207056,27.7060893 59.9543726,28.7411743 59.9543726,30.0168294 C59.9543726,31.2945947 58.9207056,32.3296796 57.6462711,32.3296796 L47.3933691,32.3296796 Z" id="Fill-17" fill="#3B9DFF"></path>
                <g id="编组" transform="translate(26.188813, 0.000000)">
                    <mask id="mask-2" fill="white">
                        <use xlink:href="#path-1"></use>
                    </mask>
                    <g id="Clip-20"></g>
                    <path d="M2.30968205,4.62343203 C1.03419386,4.62343203 0,3.58940225 0,2.31110931 C0,1.03492664 1.03419386,-0.000158269864 2.30968205,-0.000158269864 L14.599888,-0.000158269864 C15.875903,-0.000158269864 16.90957,1.03492664 16.90957,2.31110931 C16.90957,3.58940225 15.875903,4.62343203 14.599888,4.62343203 L2.30968205,4.62343203 Z" id="Fill-19" fill="#3B9DFF" mask="url(#mask-2)"></path>
                </g>
                <path d="M31.5052433,55.3758821 C32.7807315,55.3758821 33.8149253,56.410967 33.8149253,57.6887324 C33.8149253,58.9654427 32.7807315,60 31.5052433,60 L19.2150373,60 C17.9390223,60 16.9053553,58.9654427 16.9053553,57.6887324 C16.9053553,56.410967 17.9390223,55.3758821 19.2150373,55.3758821 L31.5052433,55.3758821 Z" id="Fill-21" fill="#3B9DFF"></path>
                <g id="编组" transform="translate(16.905724, 0.000000)">
                    <mask id="mask-4" fill="white">
                        <use xlink:href="#path-3"></use>
                    </mask>
                    <g id="Clip-24"></g>
                    <path d="M4.61725673,2.31168964 C4.61725673,3.58839987 3.58358971,4.62348479 2.30862836,4.62348479 C1.03366701,4.62348479 0,3.58839987 0,2.31168964 C0,1.0349794 1.03366701,-0.000105513243 2.30862836,-0.000105513243 C3.58358971,-0.000105513243 4.61725673,1.0349794 4.61725673,2.31168964" id="Fill-23" fill="#293754" mask="url(#mask-4)"></path>
                </g>
                <path d="M52.9401359,11.5227319 C52.9401359,12.7994422 51.9064689,13.8345271 50.6315075,13.8345271 C49.3565462,13.8345271 48.3228791,12.7994422 48.3228791,11.5227319 C48.3228791,10.2460217 49.3565462,9.2109368 50.6315075,9.2109368 C51.9064689,9.2109368 52.9401359,10.2460217 52.9401359,11.5227319" id="Fill-25" fill="#FF8B6E"></path>
                <path d="M6.2059534,20.7700708 C6.2059534,22.0467811 5.17228639,23.081866 3.89732504,23.081866 C2.62236369,23.081866 1.58869667,22.0467811 1.58869667,20.7700708 C1.58869667,19.4933606 2.62236369,18.4582757 3.89732504,18.4582757 C5.17228639,18.4582757 6.2059534,19.4933606 6.2059534,20.7700708" id="Fill-27" fill="#293754"></path>
                <path d="M40.4672206,30.0171459 C40.4672206,31.2938561 39.4335536,32.3289411 38.1585922,32.3289411 C36.8836309,32.3289411 35.8499639,31.2938561 35.8499639,30.0171459 C35.8499639,28.7404357 36.8836309,27.7053508 38.1585922,27.7053508 C39.4335536,27.7053508 40.4672206,28.7404357 40.4672206,30.0171459" id="Fill-29" fill="#FF8B6E"></path>
                <path d="M15.4406249,39.2655399 C15.4406249,40.5422501 14.4069579,41.5773351 13.1319965,41.5773351 C11.8570352,41.5773351 10.8233682,40.5422501 10.8233682,39.2655399 C10.8233682,37.9888297 11.8570352,36.9537448 13.1319965,36.9537448 C14.4069579,36.9537448 15.4406249,37.9888297 15.4406249,39.2655399" id="Fill-31" fill="#00D8C7"></path>
                <path d="M43.0494915,57.6880993 C43.0494915,58.9648096 42.0158245,59.9998945 40.7408631,59.9998945 C39.4653749,59.9998945 38.4322348,58.9648096 38.4322348,57.6880993 C38.4322348,56.4113891 39.4653749,55.3763042 40.7408631,55.3763042 C42.0158245,55.3763042 43.0494915,56.4113891 43.0494915,57.6880993" id="Fill-33" fill="#293754"></path>
                <path d="M6.2059534,39.2655399 C6.2059534,40.5422501 5.17228639,41.5773351 3.89732504,41.5773351 C2.62236369,41.5773351 1.58869667,40.5422501 1.58869667,39.2655399 C1.58869667,37.9888297 2.62236369,36.9537448 3.89732504,36.9537448 C5.17228639,36.9537448 6.2059534,37.9888297 6.2059534,39.2655399" id="Fill-35" fill="#FF8B6E"></path>
                <path d="M28.9229724,23.0810219 C30.1968801,23.0810219 31.2310739,22.0459369 31.2310739,20.7702818 C31.2310739,20.2611804 31.0661719,19.7932292 30.7869448,19.4107437 C29.1579446,17.1670046 29.1611057,15.1253234 30.7901059,12.8810567 C31.069333,12.5006814 31.2310739,12.0311475 31.2310739,11.5220461 C31.2310739,10.2448083 30.1968801,9.21077853 28.9229724,9.21077853 C27.6490647,9.21077853 26.614344,10.2448083 26.614344,11.5220461 C26.614344,12.0311475 26.7766118,12.5006814 27.0558389,12.8810567 C28.6843123,15.1253234 28.6874733,17.1670046 27.059,19.4107437 C26.7797729,19.7932292 26.614344,20.2611804 26.614344,20.7702818 C26.614344,22.0459369 27.6490647,23.0810219 28.9229724,23.0810219" id="Fill-37" fill="#3B9DFF"></path>
                <path d="M44.5029474,39.2655399 C44.5029474,40.541195 45.5366144,41.5768075 46.8105221,41.5768075 C47.3189261,41.5768075 47.7862363,41.4116793 48.1681979,41.1320692 C50.4093903,39.501362 52.4472211,39.5045274 54.6894671,41.1352346 C55.0693213,41.4148447 55.5376852,41.5768075 56.0460892,41.5768075 C57.3210506,41.5768075 58.3541908,40.541195 58.3541908,39.2655399 C58.3541908,37.9898848 57.3210506,36.9542723 56.0460892,36.9542723 C55.5376852,36.9542723 55.0693213,37.1162351 54.6894671,37.3958452 C52.4472211,39.0265524 50.4093903,39.0297178 48.1681979,37.3990106 C47.7862363,37.1194005 47.3189261,36.9542723 46.8105221,36.9542723 C45.5366144,36.9542723 44.5029474,37.9898848 44.5029474,39.2655399" id="Fill-39" fill="#00D8C7"></path>
                <path d="M6.99105563,48.3650547 C6.99105563,49.6407098 8.02472265,50.6763223 9.29863031,50.6763223 C9.80703432,50.6763223 10.2743445,50.5111941 10.6557793,50.231584 C12.8969716,48.6008768 14.9353293,48.6040422 17.1770485,50.2347494 C17.5569027,50.5143595 18.0252666,50.6763223 18.5336706,50.6763223 C19.8091588,50.6763223 20.842299,49.6407098 20.842299,48.3650547 C20.842299,47.0893996 19.8091588,46.0537871 18.5336706,46.0537871 C18.0252666,46.0537871 17.5569027,46.21575 17.1770485,46.4953601 C14.9353293,48.1260672 12.8969716,48.1292326 10.6557793,46.4985255 C10.2743445,46.2189154 9.80703432,46.0537871 9.29863031,46.0537871 C8.02472265,46.0537871 6.99105563,47.0893996 6.99105563,48.3650547" id="Fill-41" fill="#293754"></path>
            </g>
        </g>
    </g>
</svg>